<svg width="58" height="69" viewBox="0 0 58 69" fill="none" xmlns="http://www.w3.org/2000/svg">
    <path d="M0 52.7126C3.04562 57.5826 7.30421 61.578 12.3585 64.3071C17.4128 67.0361 23.0893 68.4054 28.832 68.2805C34.5748 68.4096 40.2525 67.0444 45.3089 64.3188C50.3653 61.5932 54.6269 57.6007 57.676 52.7326C57.5267 48.5272 54.1467 44.9965 47.536 42.1405C41.6593 39.4508 35.2936 37.9942 28.832 37.8605C22.3817 37.9885 16.0223 39.4056 10.128 42.0285C3.51733 44.7939 0.141333 48.3552 0 52.7126ZM38.972 4.28055C37.6637 2.91252 36.089 1.82698 34.3451 1.09088C32.6011 0.354777 30.7249 -0.0162948 28.832 0.000548757C26.9391 -0.0162948 25.0629 0.354777 23.3189 1.09088C21.575 1.82698 20.0003 2.91252 18.692 4.28055C17.324 5.58887 16.2384 7.16355 15.5023 8.90749C14.7662 10.6514 14.3952 12.5277 14.412 14.4206C14.3952 16.3134 14.7662 18.1897 15.5023 19.9336C16.2384 21.6776 17.324 23.2522 18.692 24.5606C20.0003 25.9286 21.575 27.0141 23.3189 27.7502C25.0629 28.4863 26.9391 28.8574 28.832 28.8405C30.7249 28.8574 32.6011 28.4863 34.3451 27.7502C36.089 27.0141 37.6637 25.9286 38.972 24.5606C40.34 23.2522 41.4256 21.6776 42.1617 19.9336C42.8978 18.1897 43.2688 16.3134 43.252 14.4206C43.2688 12.5277 42.8978 10.6514 42.1617 8.90749C41.4256 7.16355 40.34 5.58887 38.972 4.28055Z" fill="white"/>
</svg>
